<?xml version="1.0" encoding="UTF-8"?>
<!DOCTYPE svg PUBLIC "-//W3C//DTD SVG 1.1//EN" "http://www.w3.org/Graphics/SVG/1.1/DTD/svg11.dtd">
<!-- Creator: CorelDRAW 2018 (64-Bit) -->
<svg xmlns="http://www.w3.org/2000/svg" xml:space="preserve" width="1.61417in" height="1.69291in" version="1.1" shape-rendering="geometricPrecision" text-rendering="geometricPrecision" image-rendering="optimizeQuality" fill-rule="evenodd" clip-rule="evenodd"
viewBox="0 0 1614.17 1692.91"
 xmlns:xlink="http://www.w3.org/1999/xlink">
 <g id="Layer_x0020_1">
  <metadata id="CorelCorpID_0Corel-Layer"/>
  <path fill="#248b45" d="M300.23 338.26l426.88 129.57 21.33 -70.18 -457.33 -138.81 -203.25 117.24 36.67 63.5 0 44.77 -36.67 21.15 36.67 63.5 0 44.77 -36.67 21.15 36.67 63.5 0 44.77 -36.67 21.15 36.67 63.5 0 44.77 -36.67 21.15 36.67 63.52 0 44.75 -36.67 21.15 36.67 63.52 0 44.76 -36.67 21.15 36.67 63.52 0 44.75 -36.67 21.15 36.67 63.52 0 44.75 -36.67 21.15 20.53 35.55 0 175.73 -108.39 0 0 70.15 1614.17 0 0 -70.15 -188.96 0 0 -122.14 20.53 -67.57 -448.2 -136.05 0 -52.77 426.88 129.57 21.32 -70.18 -448.2 -136.05 0 -52.78 426.88 129.58 21.32 -70.19 -448.2 -136.04 0 -52.78 426.88 129.57 21.32 -70.18 -448.2 -136.05 0 -52.77 426.88 129.57 21.32 -70.18 -448.2 -136.04 0 -52.78 426.88 129.57 21.32 -70.18 -448.2 -136.05 0 -52.77 426.88 129.57 21.32 -70.18 -448.2 -136.05 0 -52.78 426.88 129.57 21.32 -70.17 -448.2 -136.06 0 -52.77 426.88 129.57 21.32 -70.18 -448.2 -136.05 0 -52.78 426.88 129.57 21.32 -70.18 -448.2 -136.05 0 -52.77 426.88 129.57 21.32 -70.18 -457.32 -138.81 -203.25 117.24 36.67 63.52 0 44.75 -36.67 21.15 36.67 63.52 0 44.75 -36.67 21.16 36.67 63.52 0 44.75 -36.67 21.15 36.67 63.52 0 44.75 -36.67 21.15 36.67 63.52 0 44.75 -36.67 21.15 36.67 63.52 0 44.74 -36.67 21.15 36.67 63.52 0 44.75 -36.67 21.15 36.67 63.52 0 44.76 -36.67 21.15 36.67 63.52 0 44.75 -36.67 21.15 36.67 63.52 0 44.75 -36.68 21.16 20.52 35.55 0 175.73 -77.8 0 0 -122.14 20.54 -67.57 -448.21 -136.05 0 -52.77 426.88 129.57 21.33 -70.18 -448.21 -136.05 0 -52.78 426.88 129.58 21.33 -70.19 -448.21 -136.04 0 -52.78 426.88 129.57 21.33 -70.18 -448.21 -136.05 0 -52.77 426.88 129.57 21.33 -70.18 -448.21 -136.04 0 -52.78 426.88 129.57 21.33 -70.18 -448.21 -136.05 0 -52.77 426.88 129.57 21.33 -70.18 -448.21 -136.05 0 -52.78 426.88 129.57 21.33 -70.17 -448.21 -136.06 0 -52.77zm96.33 1284.5l0 -149.11 224.09 53.76 0 95.35 -224.09 0zm697.32 0l0 -149.11 224.08 53.76 0 95.35 -224.08 0z"/>
 </g>
</svg>
