<svg xmlns="http://www.w3.org/2000/svg" width="240" height="46.571" viewBox="0 0 240 46.571">
  <g id="Group_376" data-name="Group 376" transform="translate(-105.799 -220.972)">
    <path id="Path_475" data-name="Path 475" d="M165.784,251.268V230.925h15.029v4.882H171.48v3.051h2.993a17.307,17.307,0,0,1,3.4.349,6.482,6.482,0,0,1,3.168,1.715,5.342,5.342,0,0,1,1.424,4.039,5.982,5.982,0,0,1-.9,3.458,5.434,5.434,0,0,1-2.2,1.947,9.877,9.877,0,0,1-2.5.761,20.921,20.921,0,0,1-2.382.139Zm5.7-4.068h2.441a3.858,3.858,0,0,0,2.121-.494,1.87,1.87,0,0,0,.727-1.66,1.845,1.845,0,0,0-.727-1.648,3.892,3.892,0,0,0-2.121-.47H171.48V247.2Zm23.655,4.65a12.236,12.236,0,0,1-4.65-.843,9.609,9.609,0,0,1-3.458-2.358,10.108,10.108,0,0,1-2.121-3.424,12.146,12.146,0,0,1-.7-4.132,12.022,12.022,0,0,1,.7-4.092A10,10,0,0,1,187,233.536a9.557,9.557,0,0,1,3.434-2.348,13.569,13.569,0,0,1,9.416,0,9.75,9.75,0,0,1,5.517,5.783,12.569,12.569,0,0,1,0,8.253,9.628,9.628,0,0,1-2.093,3.424,9.8,9.8,0,0,1-3.423,2.329,12.023,12.023,0,0,1-4.713.872Zm0-4.882a5.219,5.219,0,0,0,2.354-.58,4.705,4.705,0,0,0,1.943-1.918,6.644,6.644,0,0,0,.76-3.376,6.782,6.782,0,0,0-.76-3.395,4.747,4.747,0,0,0-1.943-1.89,5.221,5.221,0,0,0-2.354-.581,5.167,5.167,0,0,0-2.325.581,4.545,4.545,0,0,0-1.943,1.918,6.43,6.43,0,0,0-.789,3.366,5.685,5.685,0,0,0,1.574,4.423,5,5,0,0,0,3.482,1.452Zm13.688,4.3V230.925h12.2v4.882h-6.5v15.46Zm16.68-20.342H240.5v15.461h2.441v8.945h-4.882v-4.064H226.317v4.064h-4.882v-8.945a3.728,3.728,0,0,0,1.831-.553,4.057,4.057,0,0,0,1.512-1.54,5.983,5.983,0,0,0,.7-2.557c.02-.427.03-1.071.03-1.918v-8.893Zm5.23,4.882v4.825a17.092,17.092,0,0,1-.15,2.47,5.533,5.533,0,0,1-.634,1.86,3.98,3.98,0,0,1-1.361,1.424H234.8V235.808Zm24.44,15.46V230.925H270.2v4.882h-9.334v3.051h2.994a17.3,17.3,0,0,1,3.4.349,6.482,6.482,0,0,1,3.168,1.715,5.342,5.342,0,0,1,1.424,4.039,5.991,5.991,0,0,1-.9,3.458,5.441,5.441,0,0,1-2.2,1.947,9.883,9.883,0,0,1-2.5.761,20.905,20.905,0,0,1-2.382.139Zm5.7-4.068h2.441a3.865,3.865,0,0,0,2.122-.494,1.872,1.872,0,0,0,.727-1.66,1.847,1.847,0,0,0-.727-1.648,3.9,3.9,0,0,0-2.122-.47h-2.441V247.2Zm11.6,4.068,7.236-20.342h6.917l7.206,20.342h-6.1l-1.1-3.515H279.7l-1.133,3.515Zm10.7-15.663-2.329,7.671h4.65l-2.32-7.671Zm12.288,15.663V230.925h5.7v7.323h6.916v-7.323h5.7v20.342h-5.7v-8.136h-6.916v8.136Zm21.975,0V230.925h5.7v8.544l6.133-8.544h6.683l-7.725,9.848,7.929,10.495H329.02l-5.9-8.747v8.747Z" transform="translate(9.087 1.42)" fill="#1a1818" fill-rule="evenodd"/>
    <path id="Path_476" data-name="Path 476" d="M263.778,254.622h.543v4.427l3.819-4.651v5.817H267.6V255.79l-3.819,4.65v-5.817Zm6.649,5.594V255.07h-1.495v-.448h3.53v.448h-1.493v5.146Zm2.829,0v-5.594h2.461v.448H273.8v5.146Zm2.884-.288v-.608a2.993,2.993,0,0,0,1.75.608,2.188,2.188,0,0,0,.839-.167,2.28,2.28,0,0,0,.743-.488,2.33,2.33,0,0,0,.518-.768,2.539,2.539,0,0,0,.218-.974h-3.4v-.447h3.381a2.229,2.229,0,0,0-.2-.864,2.178,2.178,0,0,0-.518-.693,2.275,2.275,0,0,0-.735-.457,2.4,2.4,0,0,0-.864-.16,2.711,2.711,0,0,0-1.734.617v-.6a3.312,3.312,0,0,1,1.758-.463,3.124,3.124,0,0,1,1.231.231,2.565,2.565,0,0,1,.91.638,2.808,2.808,0,0,1,.561.944,3.506,3.506,0,0,1,.183,1.141,3.19,3.19,0,0,1-.2,1.137,2.708,2.708,0,0,1-1.485,1.59,2.992,2.992,0,0,1-1.2.231,3.617,3.617,0,0,1-1.758-.448Zm6.4-5.306h3.109v5.594h-.544V255.07h-2.022v3.011a5.28,5.28,0,0,1-.112,1.192,1.444,1.444,0,0,1-.416.736,1.25,1.25,0,0,1-.831.256,2,2,0,0,1-.439-.048v-.446a1.758,1.758,0,0,0,.3.038.8.8,0,0,0,.6-.214,1.1,1.1,0,0,0,.28-.576,4.934,4.934,0,0,0,.071-.912v-3.484Zm8.2,5.594V255.07h-1.495v-.448h3.532v.448h-1.494v5.146Zm3.957,0v-2.572l-1.773-3.022h.607l1.437,2.525,1.441-2.525h.608l-1.776,3.022v2.572Zm3.076,0v-5.594h2.461v.448h-1.917v5.146Zm2.884-.288v-.608a2.991,2.991,0,0,0,1.75.608,2.178,2.178,0,0,0,.838-.167,2.3,2.3,0,0,0,.744-.488,2.329,2.329,0,0,0,.518-.768,2.517,2.517,0,0,0,.217-.974h-3.4v-.447h3.38a2.228,2.228,0,0,0-.2-.864,2.177,2.177,0,0,0-.518-.693,2.276,2.276,0,0,0-.735-.457,2.4,2.4,0,0,0-.864-.16,2.711,2.711,0,0,0-1.734.617v-.6a3.31,3.31,0,0,1,1.758-.463,3.114,3.114,0,0,1,1.23.231,2.545,2.545,0,0,1,.91.638,2.81,2.81,0,0,1,.561.944,3.477,3.477,0,0,1,.184,1.141,3.191,3.191,0,0,1-.2,1.137,2.7,2.7,0,0,1-1.484,1.59,2.991,2.991,0,0,1-1.2.231,3.617,3.617,0,0,1-1.758-.448Zm5.426,0v-.608a2.991,2.991,0,0,0,1.75.608,2.178,2.178,0,0,0,.838-.167,2.3,2.3,0,0,0,.744-.488,2.329,2.329,0,0,0,.518-.768,2.517,2.517,0,0,0,.216-.974h-3.4v-.447h3.38a2.228,2.228,0,0,0-.2-.864,2.177,2.177,0,0,0-.518-.693,2.276,2.276,0,0,0-.735-.457,2.4,2.4,0,0,0-.864-.16,2.711,2.711,0,0,0-1.734.617v-.6a3.312,3.312,0,0,1,1.758-.463,3.114,3.114,0,0,1,1.23.231,2.545,2.545,0,0,1,.91.638,2.81,2.81,0,0,1,.561.944,3.476,3.476,0,0,1,.184,1.141,3.191,3.191,0,0,1-.2,1.137,2.7,2.7,0,0,1-1.484,1.59,2.991,2.991,0,0,1-1.2.231,3.617,3.617,0,0,1-1.758-.448Zm5.792.288v-5.594h.545v2.293h3.221v-2.293h.544v5.594h-.544v-2.852H312.42v2.852Zm5.349-.286v-.609a3,3,0,0,0,1.75.609,2.18,2.18,0,0,0,.838-.168,2.261,2.261,0,0,0,.744-.488,2.373,2.373,0,0,0,.519-.769,2.554,2.554,0,0,0,.215-.974h-3.4v-.448h3.38a2.126,2.126,0,0,0-.719-1.557,2.285,2.285,0,0,0-.736-.456,2.392,2.392,0,0,0-.862-.16,2.716,2.716,0,0,0-1.734.616v-.6a3.319,3.319,0,0,1,1.758-.462,3.106,3.106,0,0,1,1.23.231,2.545,2.545,0,0,1,.91.638,2.844,2.844,0,0,1,.563.944,3.536,3.536,0,0,1,.182,1.141,3.191,3.191,0,0,1-.2,1.137,2.695,2.695,0,0,1-1.483,1.59,3,3,0,0,1-1.2.231A3.638,3.638,0,0,1,317.224,259.931Z" transform="translate(23.932 5.064)" fill="#1a1818" fill-rule="evenodd"/>
    <path id="Path_477" data-name="Path 477" d="M127.43,220.972l4.208,7.288-13.216,22.889h15.916l4.209,7.288H105.8l4.208-7.288,6.607-11.445,10.816-18.732Zm32.145,37.465L148.759,239.7l-6.607-11.445-4.208-7.288-4.208,7.288L127.128,239.7l-5.557,9.628h8.415l7.958-13.784,13.214,22.889Zm-48.519,9.106h43.261l-4.208-7.288L143.5,248.81l-5.558-9.628-4.208,7.289,7.958,13.783H115.263Z" fill="#248b45" fill-rule="evenodd"/>
  </g>
</svg>
