<?xml version="1.0" encoding="UTF-8"?>
<!DOCTYPE svg PUBLIC "-//W3C//DTD SVG 1.1//EN" "http://www.w3.org/Graphics/SVG/1.1/DTD/svg11.dtd">
<!-- Creator: CorelDRAW 2018 (64-Bit) -->
<svg xmlns="http://www.w3.org/2000/svg" xml:space="preserve" width="1.61417in" height="1.9685in" version="1.1" shape-rendering="geometricPrecision" text-rendering="geometricPrecision" image-rendering="optimizeQuality" fill-rule="evenodd" clip-rule="evenodd"
viewBox="0 0 1614.17 1968.5"
 xmlns:xlink="http://www.w3.org/1999/xlink">
 <g id="Layer_x0020_1">
  <metadata id="CorelCorpID_0Corel-Layer"/>
  <path fill="#248b45" d="M0.21 1591.87c0,0.94 0.16,1.86 0.19,2.79 8.09,207.13 365.9,373.84 806.17,373.84 445.34,0 806.36,-170.58 806.36,-381.01l-2.26 0c0.72,-1.61 1.56,-3.13 2.26,-4.76 10.53,-30.75 -48.23,-279.74 -77.23,-333.83 -19.17,-35.78 -376.48,-177.96 -443.06,-187.71 -22.27,142 -86.24,344.64 -145.56,467.63l-75.38 -226.97c4.99,-22.44 54.33,-53.19 43.9,-95.64 -15.54,-63.26 -87.82,-38.3 -102.99,-37.54 -38.52,1.97 -76.69,-24.14 -107.18,26.15 -25.83,42.6 22.16,80.98 33.62,106.14l-69.01 226.52c-42.49,-55.31 -136.99,-379.52 -146.81,-468.41 -34.56,6.2 -321.35,114.38 -387.87,137.5 -85.39,29.69 -139.11,315.13 -135.14,395.28zm723.13 -1586.66c-300.99,42.38 -287.79,227.57 -300.46,423.92 -2.91,45.14 -15.62,62.67 -20.29,100.64 -6.54,53.24 2.01,162.68 24.8,210.78 19.14,40.4 42.78,28.93 53.92,68.87 20.04,71.86 33.26,115.42 72.19,168.5 58.87,80.27 169.84,186.23 326.76,141.19 108.31,-31.1 196.83,-137.95 236.39,-245.83 8.05,-21.95 18.33,-75.2 29.81,-87.91 9.09,-10.06 20.33,-12.47 32.65,-28.98 38.86,-52.08 44.82,-205.93 23.85,-266.93 -36.88,-107.21 18.2,-206.93 -59.93,-299.11 -35.19,-41.53 -50.16,-40.88 -66.33,-56.61 -19.61,-19.07 -29.06,-44.94 -50.81,-67.06 -66.57,-67.71 -213.52,-74.03 -302.55,-61.49zm-207.72 553.18c-18.98,-19.39 -11.66,-38.18 -39.71,-52.86 -47.15,22.32 -23.38,146.34 -6.83,193.31 15.94,45.22 38.13,34.08 54.49,63.01 10.1,17.87 16.43,69.57 24.37,93.42 33.62,100.91 133.53,218.84 254.8,221.94 125.14,3.2 226.23,-116.51 261.77,-209.91 13.12,-34.5 12.06,-66.09 22.61,-95.44 12.07,-33.59 40.5,-30.59 55.59,-61.98 22.03,-45.8 35.81,-164.74 7.06,-201.56 -34.7,0.96 -27.89,25.1 -49.63,46.09 -5,-126.62 18.94,-192.83 -52.35,-278.65 -72.98,-87.86 -153.82,16.42 -244.85,15.35 -99.16,-1.16 -151.46,-107.4 -242.77,-13.02 -77.82,80.43 -35.28,166.22 -44.56,280.31z"/>
 </g>
</svg>
